PathFileType	4	(X/Y/Z)	C:\Users\xlb\Desktop\20210112\20210112\bx_n_10_501.trc
DataRate	CameraRate	NumFrames	NumMarkers	Units	OrigDataRate	OrigDataStartFrame	OrigNumFrames
50.00	50.00	       6	43	mm	50.00	164	       436
Frame#	Time	Top.Head			R.Acromium			L.Acromium			Sternum			R.ASIS			L.ASIS			V.Sacral			R.Thigh.Upper			R.Thigh.Front			R.Thigh.Rear			R.Knee.Lat			R.Knee.Med			R.Shank.Upper			R.Shank.Front			R.Shank.Rear			R.Ankle.Lat			R.Midfoot.Lat			R.Toe.Lat			R.Toe.Tip			R.Toe.Med			R.Ankle.Med			R.Midfoot.Sup			R.Heel			L.Thigh.Upper			L.Thigh.Front			L.Thigh.Rear			L.Knee.Lat			L.Knee.Med			L.Shank.Upper			L.Shank.Front			L.Shank.Rear			L.Ankle.Lat			L.Midfoot.Lat			L.Toe.Lat			L.Toe.Tip			L.Toe.Med			L.Ankle.Med			L.Midfoot.Sup			L.Heel			origin1 front left			origin2 front right			origin 3 back right			origin 4 back leftt			
		X1	Y1	Z1	X2	Y2	Z2	X3	Y3	Z3	X4	Y4	Z4	X5	Y5	Z5	X6	Y6	Z6	X7	Y7	Z7	X8	Y8	Z8	X9	Y9	Z9	X10	Y10	Z10	X11	Y11	Z11	X12	Y12	Z12	X13	Y13	Z13	X14	Y14	Z14	X15	Y15	Z15	X16	Y16	Z16	X17	Y17	Z17	X18	Y18	Z18	X19	Y19	Z19	X20	Y20	Z20	X21	Y21	Z21	X22	Y22	Z22	X23	Y23	Z23	X24	Y24	Z24	X25	Y25	Z25	X26	Y26	Z26	X27	Y27	Z27	X28	Y28	Z28	X29	Y29	Z29	X30	Y30	Z30	X31	Y31	Z31	X32	Y32	Z32	X33	Y33	Z33	X34	Y34	Z34	X35	Y35	Z35	X36	Y36	Z36	X37	Y37	Z37	X38	Y38	Z38	X39	Y39	Z39	X40	Y40	Z40	X41	Y41	Z41	X42	Y42	Z42	X43	Y43	Z43	

164	3.260	-589.48242	99.36665	1823.30823	-622.09332	-74.68431	1511.00000	-627.92926	285.11224	1511.75598	-586.89331	101.63919	1321.85083	-666.35559	-9.95889	1053.42908	-675.77686	237.66553	1067.59680	-868.84808	90.01686	1065.55310	-734.28241	-73.92886	876.87903	-649.31763	-16.10051	811.94391	-746.80096	-62.33588	760.00616	-748.38593	-36.90127	616.80206	-724.57550	71.48904	574.81934	-750.03802	-34.28133	569.34283	-694.52911	13.69776	524.62170	-785.56091	-46.46044	486.26288	-760.76385	-20.60834	206.17780	-649.18884	-70.24928	159.40567	-607.69086	-78.45737	155.61295	-549.97394	-31.12673	162.74483	-597.79663	23.61217	169.38132	-719.37384	66.93925	218.67902	-672.31250	51.94024	161.59113	-792.42236	37.83996	173.37212	-759.94598	277.37909	877.24835	-650.22437	216.99033	821.88867	-758.11853	268.88770	746.13580	-777.59314	251.37711	641.83832	-730.90436	146.10738	578.31091	-772.74072	249.13887	576.06329	-714.00739	208.97162	539.20404	-805.38892	259.65497	498.57516	-771.49371	230.24756	203.54277	-661.24933	298.98721	156.22226	-624.68201	308.23477	156.99533	-558.46075	257.07556	164.33418	-594.17242	222.47864	174.90968	-714.68292	157.44180	220.53391	-675.76691	175.13237	162.15115	-796.72467	180.03743	182.67375	-527.93713	304.01202	146.39247	-517.75922	-73.00198	143.00192	-875.91888	-78.69186	141.18777	-882.62646	296.06799	144.60098	
165	3.280	-600.82458	98.83196	1827.20898	-629.37372	-75.04847	1514.79053	-635.24286	284.86218	1515.36755	-589.85980	101.57996	1326.01990	-663.28265	-10.38980	1054.33496	-672.86285	237.65448	1068.29663	-865.71210	89.85700	1064.62744	-730.58490	-74.04383	877.02808	-645.76172	-16.32971	812.01074	-743.61395	-62.09575	760.22192	-746.01862	-36.84843	616.91339	-722.03442	71.46502	574.93396	-747.77795	-34.13373	569.46692	-692.45483	13.61571	524.30823	-783.78058	-46.15231	486.56006	-760.72424	-20.61742	206.22723	-649.16449	-70.31898	159.44820	-607.74164	-78.50903	155.54292	-549.94208	-31.21572	162.66531	-597.80054	23.54419	169.44104	-719.22693	66.97046	218.48529	-672.29822	51.98333	161.48615	-792.29468	37.87724	173.39236	-756.37183	277.27747	877.39380	-646.75421	216.98265	822.04376	-754.99609	268.69141	746.46350	-775.15735	251.14626	642.20947	-728.60175	146.08957	578.41534	-770.58875	248.86061	576.25574	-711.97894	208.84633	539.04803	-803.71381	259.30890	499.04071	-771.43988	230.20885	203.62411	-661.23767	298.98303	156.22110	-624.69604	308.24954	157.01239	-558.40149	257.11258	164.39169	-594.14331	222.55600	174.93275	-714.46863	157.29263	220.42387	-675.78455	175.10629	162.14717	-796.64398	180.04901	182.61774	-527.94482	304.02765	146.37053	-517.74579	-73.00242	142.99350	-875.95752	-78.72667	141.18382	-882.59802	296.04480	144.61337	
166	3.300	-611.84021	98.33007	1830.69995	-636.50031	-75.22855	1518.25684	-642.62415	284.71201	1518.78845	-592.95856	101.62725	1329.97668	-660.35077	-10.92690	1055.27808	-670.04816	237.63747	1068.88855	-862.55579	89.62964	1063.70630	-726.79541	-74.20336	877.15063	-642.13629	-16.55622	812.08789	-740.25195	-62.10084	760.55884	-743.56433	-36.78867	616.96088	-719.48181	71.45278	575.10126	-745.38788	-34.01668	569.61658	-690.33405	13.54062	524.01471	-781.93768	-45.90074	486.83960	-760.66815	-20.65462	206.28525	-649.16669	-70.39945	159.50862	-607.78809	-78.56635	155.46698	-549.90930	-31.32569	162.58217	-597.80164	23.46457	169.49057	-719.06677	67.05131	218.26486	-672.29175	52.02385	161.40855	-792.21899	37.92326	173.41055	-752.82153	277.23441	877.54913	-643.33990	217.00354	822.18085	-751.94177	268.50613	746.77905	-772.75421	250.82143	642.50189	-726.29865	146.01363	578.58063	-768.47131	248.55930	576.47235	-710.01593	208.72823	538.89734	-802.04395	258.93549	499.51001	-771.36230	230.14807	203.70842	-661.21210	299.01761	156.23836	-624.68695	308.26566	157.02492	-558.34692	257.17651	164.48756	-594.08313	222.65482	174.95140	-714.28204	157.22884	220.35803	-675.79578	175.08047	162.15050	-796.59058	180.08942	182.51306	-527.95435	304.02115	146.32898	-517.74115	-73.00058	142.98158	-875.93109	-78.72097	141.13107	-882.55658	296.04504	144.64133	
167	3.320	-622.52197	97.85916	1833.80933	-643.49060	-75.26508	1521.35071	-649.97150	284.61200	1521.96313	-596.17450	101.76056	1333.72766	-657.52039	-11.47975	1056.20044	-667.23578	237.60284	1069.37854	-859.37726	89.33354	1062.80615	-722.94354	-74.36172	877.26563	-638.43622	-16.71301	812.13068	-736.76617	-62.27756	760.94476	-741.06866	-36.72132	616.99011	-716.95569	71.46181	575.31970	-742.93237	-33.95139	569.76953	-688.19482	13.49946	523.78735	-780.07642	-45.69125	487.11310	-760.57935	-20.68053	206.36136	-649.22290	-70.47148	159.55188	-607.83252	-78.63087	155.39325	-549.85663	-31.45455	162.52524	-597.78748	23.39742	169.52560	-718.87195	67.15818	218.05408	-672.29553	52.04894	161.35696	-792.19342	37.97302	173.42650	-749.31146	277.31149	877.75281	-639.99469	216.98636	822.22180	-749.04236	268.30261	747.04480	-770.38025	250.43866	642.74915	-723.95630	145.89000	578.78552	-766.42682	248.25005	576.72357	-708.10461	208.62091	538.81171	-800.38654	258.59787	499.95361	-771.23236	230.06345	203.77039	-661.21631	299.08566	156.25404	-624.67206	308.27945	157.03381	-558.30194	257.26093	164.60509	-594.00610	222.76636	174.96521	-714.13507	157.22560	220.33270	-675.75446	175.05687	162.18645	-796.50647	180.07521	182.47899	-527.95123	303.97568	146.27998	-517.74646	-72.99158	142.96170	-875.82947	-78.67561	141.03772	-882.52618	296.05594	144.66653	
168	3.340	-632.87726	97.40508	1836.55933	-650.35553	-75.27699	1524.11646	-657.18335	284.46533	1524.79968	-599.39783	101.95509	1337.25037	-654.75531	-11.99486	1057.06604	-664.39563	237.54669	1069.81873	-856.17480	88.97919	1061.91675	-719.04065	-74.48076	877.36914	-634.67896	-16.75254	812.14984	-733.22681	-62.41281	761.24365	-738.51331	-36.66270	617.05615	-714.47308	71.48489	575.53717	-740.47961	-33.91977	569.87396	-686.02783	13.49394	523.61023	-778.21875	-45.49152	487.38065	-760.42340	-20.64765	206.47319	-649.32788	-70.49873	159.57382	-607.86932	-78.68818	155.35313	-549.79633	-31.57552	162.50800	-597.76288	23.36343	169.53026	-718.63739	67.28831	217.87413	-672.31042	52.07057	161.29662	-792.18518	38.03567	173.44737	-745.90326	277.43042	877.98102	-636.73682	216.89418	822.13446	-746.30280	268.06247	747.24219	-768.01892	250.06892	642.99133	-721.58380	145.76749	578.99707	-764.42932	247.93250	576.96844	-706.20605	208.52087	538.79663	-798.74591	258.29840	500.34167	-771.04010	229.94205	203.79526	-661.28223	299.16843	156.24542	-624.66455	308.28949	157.03590	-558.25708	257.33844	164.71735	-593.93207	222.86526	174.95937	-713.98175	157.23317	220.30327	-675.67499	175.04231	162.22539	-796.35406	179.96472	182.58607	-527.93481	303.92346	146.23901	-517.75519	-72.97905	142.93381	-875.70197	-78.63242	140.96181	-882.51196	296.06171	144.67027	
169	3.360	-642.92657	96.97008	1838.94543	-657.04468	-75.35759	1526.62390	-664.16620	284.21497	1527.24634	-602.45050	102.14417	1340.50830	-652.03943	-12.45736	1057.86438	-661.57379	237.49590	1070.26489	-852.96039	88.58122	1061.00537	-715.06549	-74.57059	877.44415	-630.89777	-16.66354	812.18475	-729.65863	-62.38187	761.39111	-735.83337	-36.63887	617.17255	-712.01678	71.50380	575.66235	-738.04126	-33.89748	569.90192	-683.81818	13.50284	523.43103	-776.37024	-45.29009	487.63919	-760.17285	-20.54490	206.62143	-649.43396	-70.46422	159.59088	-607.88885	-78.72850	155.37012	-549.75848	-31.66908	162.51044	-597.74915	23.35776	169.48387	-718.35620	67.45201	217.73380	-672.32733	52.10709	161.19127	-792.16241	38.11863	173.47363	-742.63806	277.46527	878.16052	-633.56311	216.75299	821.97870	-743.64081	267.80521	747.39020	-765.64862	249.76099	643.22906	-719.22363	145.68419	579.20184	-762.42200	247.65680	577.19446	-704.30273	208.42815	538.80579	-797.11932	258.00824	500.66489	-770.80457	229.76982	203.79568	-661.40027	299.25101	156.21825	-624.66687	308.29904	157.03018	-558.20129	257.38867	164.80307	-593.86993	222.92058	174.93245	-713.75665	157.22617	220.20735	-675.61035	175.03178	162.20399	-796.17383	179.78252	182.79805	-527.91541	303.92038	146.22122	-517.75983	-72.97290	142.91536	-875.62329	-78.63503	140.97356	-882.51880	296.07828	144.66402	
